<svg width="30" height="40" viewBox="0 0 30 40" fill="none" xmlns="http://www.w3.org/2000/svg">
<path d="M22.2407 38.4077H7.58594V39.5821H22.2407V38.4077Z" fill="url(#paint0_linear_314_161)"/>
<path d="M1.40824 3.50343C2.01785 3.50343 2.53679 3.02089 2.73227 2.34905H13.5228V2.53506C13.5228 3.07984 13.8811 3.52304 14.3216 3.52304H15.5724C16.0128 3.52304 16.371 3.07984 16.371 2.53506V2.34905H27.0946C27.29 3.02089 27.8089 3.50343 28.4185 3.50343C29.195 3.50343 29.8267 2.72202 29.8267 1.76152C29.8267 0.801022 29.195 0.0196116 28.4185 0.0196116C27.8086 0.0196116 27.2896 0.502503 27.0943 1.1747H16.3711V0.987979C16.3711 0.443199 16.0129 0 15.5725 0H14.3217C13.8812 0 13.5229 0.443199 13.5229 0.987979V1.1747H2.73246C2.53707 0.502503 2.01813 0.0196116 1.40824 0.0196116C0.631729 0.0196116 0 0.801022 0 1.76152C0 2.7219 0.631729 3.50343 1.40824 3.50343ZM28.4186 1.19384C28.6716 1.19384 28.8774 1.44844 28.8774 1.7614C28.8774 2.07437 28.6716 2.32897 28.4186 2.32897C28.1656 2.32897 27.9597 2.07437 27.9597 1.7614C27.9597 1.44844 28.1656 1.19384 28.4186 1.19384ZM14.4723 1.17435H15.4217V2.34869H14.4723V1.17435ZM1.40824 1.19384C1.66125 1.19384 1.86708 1.44844 1.86708 1.7614C1.86708 2.07437 1.66125 2.32897 1.40824 2.32897C1.15523 2.32897 0.949397 2.07437 0.949397 1.7614C0.949397 1.44844 1.15523 1.19384 1.40824 1.19384Z" fill="url(#paint1_linear_314_161)"/>
<path d="M24.8707 24.1605L16.8492 6.16853C16.7231 5.89514 16.4627 5.76079 16.2173 5.84123C15.9714 5.92203 15.7996 6.19812 15.7996 6.51284V20.1738C15.7996 20.7606 15.9711 21.3082 16.2825 21.7158C16.6541 22.2021 16.8344 22.8397 16.79 23.5108C16.7149 24.651 15.9615 25.5656 15.0375 25.6383C14.5096 25.6795 14.0085 25.4576 13.6254 25.0128C13.2418 24.5676 13.0306 23.9642 13.0306 23.314C13.0306 22.7256 13.2086 22.164 13.5319 21.7325C13.8514 21.306 14.0275 20.7661 14.0275 20.2125V6.65846C14.0275 6.34374 13.8556 6.06753 13.6097 5.98685C13.3638 5.90606 13.104 6.04075 12.9745 6.32166L5.02699 24.1529C4.6047 25.0675 4.72166 26.2227 5.30886 26.9804L10.8248 36.4335C11.0901 36.8883 11.5193 37.1599 11.973 37.1599H17.9216C18.3751 37.1599 18.8044 36.8883 19.0698 36.4336L24.5857 26.9804C25.1726 26.2227 25.2896 25.0676 24.8707 24.1605ZM23.8856 26.186L23.8587 26.2194L18.2997 35.7462C18.2123 35.896 18.0708 35.9854 17.9214 35.9854H11.9728C11.8233 35.9854 11.6819 35.896 11.5945 35.7461L6.05794 26.2575L6.03563 26.2194L6.00866 26.186C5.69869 25.8026 5.63403 25.206 5.85496 24.7274L13.0782 8.52133V20.2127C13.0782 20.4694 12.992 20.7257 12.8357 20.9344C12.3492 21.5837 12.0813 22.4288 12.0813 23.3141C12.0813 24.2781 12.4073 25.2094 12.9758 25.8693C13.5522 26.5383 14.305 26.873 15.0979 26.8104C16.489 26.7009 17.6233 25.3235 17.7364 23.6064C17.8019 22.6135 17.5235 21.6304 16.9726 20.9093C16.8285 20.7208 16.7491 20.4595 16.7491 20.1739V8.37536L24.043 24.7352C24.2603 25.206 24.1956 25.8026 23.8856 26.186Z" fill="url(#paint2_linear_314_161)"/>
<defs>
<linearGradient id="paint0_linear_314_161" x1="9.21218" y1="43.0663" x2="21.6955" y2="37.2396" gradientUnits="userSpaceOnUse">
<stop stop-color="#2D5289"/>
<stop offset="1" stop-color="#0970AA"/>
</linearGradient>
<linearGradient id="paint1_linear_314_161" x1="3.56524" y1="9.86574" x2="28.4136" y2="-1.7324" gradientUnits="userSpaceOnUse">
<stop stop-color="#135468"/>
<stop offset="1" stop-color="#1A58B4"/>
</linearGradient>
<linearGradient id="paint2_linear_314_161" x1="5.98892" y1="28.5742" x2="23.4936" y2="20.4038" gradientUnits="userSpaceOnUse">
<stop stop-color="#14566B"/>
<stop offset="1" stop-color="#195791"/>
</linearGradient>
</defs>
</svg>
