<svg fill="none" xmlns="http://www.w3.org/2000/svg">
<path fill-rule="evenodd" clip-rule="evenodd" d="M18 1.80005C9.05389 1.80005 1.80005 9.23469 1.80005 18.4123C1.80005 25.7529 6.44308 31.9726 12.8797 34.1711C13.6897 34.323 13.9862 33.8095 13.9862 33.3684C13.9862 32.9706 13.9717 31.9292 13.9645 30.5406C9.45889 31.5459 8.50425 28.3131 8.50425 28.3131C7.76657 26.3966 6.70344 25.8831 6.70344 25.8831C5.23532 24.8489 6.81192 24.8706 6.81192 24.8706C8.43916 24.9863 9.29255 26.5846 9.29255 26.5846C10.739 29.1231 13.0822 28.3926 14.0079 27.9659C14.1525 26.8956 14.572 26.1579 15.0349 25.7457C11.4405 25.3262 7.65808 23.9015 7.65808 17.5372C7.65808 15.7219 8.28728 14.2393 9.32148 13.0822C9.15514 12.6627 8.59826 10.9704 9.48058 8.68505C9.48058 8.68505 10.8402 8.23666 13.9356 10.3846C15.2301 10.0158 16.6115 9.83496 17.9928 9.82773C19.3669 9.83496 20.7555 10.0158 22.05 10.3846C25.1454 8.23666 26.4978 8.68505 26.4978 8.68505C27.3801 10.9704 26.8233 12.6627 26.6569 13.0822C27.6911 14.2466 28.3203 15.7292 28.3203 17.5372C28.3203 23.9159 24.5307 25.319 20.9218 25.7312C21.5004 26.2447 22.0211 27.2572 22.0211 28.8049C22.0211 31.0251 21.9994 32.8187 21.9994 33.3611C21.9994 33.8023 22.2887 34.323 23.1132 34.1567C29.5642 31.9653 34.2 25.7457 34.2 18.4123C34.2 9.23469 26.9462 1.80005 18 1.80005Z" fill="#DCDCDC"/>
</svg>
