<svg fill="none" xmlns="http://www.w3.org/2000/svg">
<path fill-rule="evenodd" clip-rule="evenodd" d="M18 1.80005C26.9411 1.80005 34.2 9.05904 34.2 18C34.2 26.9411 26.9411 34.2 18 34.2C9.05904 34.2 1.80005 26.9411 1.80005 18C1.80005 9.05904 9.05904 1.80005 18 1.80005ZM12.9352 27.1044V14.4531H8.72928V27.1044H12.9352ZM28.0987 27.1044V19.8494C28.0987 15.9634 26.0239 14.1556 23.2571 14.1556C21.0261 14.1556 20.0268 15.3826 19.4672 16.2444V14.4531H15.2624C15.3181 15.6401 15.2624 27.1044 15.2624 27.1044H19.4672V20.039C19.4672 19.6609 19.4944 19.2828 19.6058 19.0125C19.9092 18.2573 20.6017 17.4749 21.7634 17.4749C23.2843 17.4749 23.8936 18.6355 23.8936 20.3354V27.1044H28.0987ZM10.8607 8.35282C9.42164 8.35282 8.48147 9.29888 8.48147 10.5389C8.48147 11.7527 9.39304 12.7249 10.805 12.7249H10.8321C12.2987 12.7249 13.2115 11.7527 13.2115 10.5389C13.1843 9.29888 12.2987 8.35282 10.8607 8.35282Z" fill="#DCDCDC"/>
</svg>
