<svg fill="none" xmlns="http://www.w3.org/2000/svg">
<path d="M18.3591 9.56299C13.9009 9.56299 10.2751 13.1884 10.2734 17.6447C10.2728 19.1719 10.7001 20.6591 11.5091 21.946L11.7014 22.2517L10.8849 25.2342L13.9439 24.4318L14.2389 24.6069C15.4799 25.3433 16.9024 25.7329 18.3526 25.7335H18.3559C22.8107 25.7335 26.4364 22.1077 26.4382 17.6511C26.439 15.4916 25.5991 13.4609 24.0732 11.9331C22.5473 10.4055 20.5179 9.56365 18.3591 9.56299ZM23.1132 21.1197C22.9107 21.6871 21.94 22.2052 21.4731 22.2749C21.0545 22.3375 20.5248 22.3636 19.9428 22.1787C19.5899 22.0667 19.1373 21.9171 18.5576 21.6668C16.1202 20.6143 14.5284 18.1602 14.4069 17.998C14.2855 17.8359 13.4148 16.6805 13.4148 15.4845C13.4148 14.2887 14.0425 13.7008 14.2652 13.4575C14.4878 13.2144 14.7511 13.1535 14.9131 13.1535C15.0751 13.1535 15.2372 13.155 15.3787 13.1621C15.5279 13.1696 15.7282 13.1054 15.9255 13.5792C16.1279 14.0657 16.6138 15.2617 16.6746 15.3833C16.7354 15.5049 16.7759 15.6468 16.6949 15.809C16.6139 15.971 16.5734 16.0725 16.4519 16.2143C16.3305 16.3562 16.1967 16.5311 16.0875 16.6399C15.9658 16.7611 15.8392 16.8926 15.9809 17.1358C16.1227 17.3791 16.6103 18.1747 17.3326 18.819C18.2606 19.6468 19.0436 19.9034 19.2865 20.025C19.5295 20.1467 19.6713 20.1263 19.813 19.9642C19.9548 19.8021 20.4204 19.2547 20.5824 19.0115C20.7443 18.7683 20.9063 18.8089 21.129 18.8899C21.3517 18.9711 22.5463 19.5588 22.7893 19.6803C23.0323 19.802 23.1942 19.8628 23.255 19.9642C23.3157 20.0655 23.3157 20.552 23.1132 21.1197Z" fill="#DCDCDC"/>
<path d="M18.0004 1.80005C9.05345 1.80005 1.80005 9.05214 1.80005 17.9991C1.80005 26.946 9.05345 34.1994 18.0004 34.1994C26.9466 34.1994 34.2 26.946 34.2 17.9991C34.2 9.05214 26.9466 1.80005 18.0004 1.80005ZM18.3559 27.3758C18.3561 27.3758 18.3556 27.3758 18.3559 27.3758H18.3519C16.7244 27.3753 15.1252 26.9669 13.7049 26.1923L8.54998 27.5445L9.92955 22.5055C9.07858 21.0308 8.63083 19.358 8.63155 17.6441C8.63366 12.2826 12.996 7.92058 18.3558 7.92058C20.9571 7.92164 23.3987 8.93431 25.2346 10.7724C27.0705 12.6104 28.0811 15.0535 28.0801 17.6518C28.0778 23.0134 23.7152 27.3758 18.3559 27.3758Z" fill="#DCDCDC"/>
</svg>
